<?xml version="1.0" encoding="utf-8"?>
<!-- Generator: Adobe Illustrator 25.0.0, SVG Export Plug-In . SVG Version: 6.00 Build 0)  -->
<svg version="1.1" id="Layer_1" xmlns="http://www.w3.org/2000/svg" xmlns:xlink="http://www.w3.org/1999/xlink" x="0px" y="0px"
	 viewBox="0 0 320 320" style="enable-background:new 0 0 320 320;" xml:space="preserve">
<style type="text/css">
	.st0{fill:none;}
</style>
<g>
	<rect x="76" y="83.17" class="st0" width="168" height="153.67"/>
	<path d="M145,168.97l36.4,51.6c2.4,3.47,5.37,6.1,8.9,7.9c3.53,1.8,6.9,2.7,10.1,2.7v2H145v-2c3.47,0,5.87-0.5,7.2-1.5
		c1.33-1,2-2.23,2-3.7c0-1.33-0.4-2.77-1.2-4.3c-0.8-1.53-1.67-3.03-2.6-4.5l-23.8-35l-8.8,6.6v34.4c0,2.93,0.87,5,2.6,6.2
		c1.73,1.2,5.87,1.8,12.4,1.8v2H79.4v-2c6.53,0,10.67-0.6,12.4-1.8c1.73-1.2,2.6-3.27,2.6-6.2V97.97c0-2.93-0.87-5-2.6-6.2
		c-1.73-1.2-5.87-1.8-12.4-1.8v-2c8.53,0,16.23-0.4,23.1-1.2c6.87-0.8,11.3-2.07,13.3-3.8h2v103.2l11.6-8.4
		c11.87-8.8,19.83-15.57,23.9-20.3c4.07-4.73,6.1-8.57,6.1-11.5c0-2-0.6-3.67-1.8-5c-1.2-1.33-2.73-2-4.6-2v-2
		c8.13,0,16-0.37,23.6-1.1c7.6-0.73,13.2-2.03,16.8-3.9l0.6,1.2L145,168.97z"/>
	<path d="M221.4,234.37c-8.13,0-12.6-4.47-13.4-13.4c0-4.13,1.2-7.43,3.6-9.9c2.4-2.47,5.67-3.7,9.8-3.7c4.13,0,7.46,1.23,10,3.7
		c2.53,2.47,3.8,5.77,3.8,9.9C235.2,229.1,230.6,233.57,221.4,234.37z"/>
</g>
<g>
</g>
<g>
</g>
<g>
</g>
<g>
</g>
<g>
</g>
<g>
</g>
</svg>
